<svg class="c-svg-library">
  <defs>
    <symbol id="icon-arrow" viewbox="0 0 19 19">
      <path d="M11,4.3l5.7,5.4L11,15.2l-0.7-0.7l4.4-4.2H2.5v-1h12.3L10.3,5L11,4.3z"/>
    </symbol>
    <symbol id="icon-arrow-45" viewbox="0 0 19 19">
      <path d="m14.7,5.4v9.3H5.4v-1h7.6L4.3,5l.7-.7,8.7,8.7v-7.6h1Z"/>
    </symbol>
    <symbol id="icon-chevron" viewbox="0 0 19 19">
      <path d="M16.207,6.5L9.5,13.207L2.793,6.5L3.5,5.793l6,6l6-6L16.207,6.5z"/>
    </symbol>
    <symbol id="icon-lens" viewbox="0 0 19 19">
      <path class="cls-1" d="m13.4,12.69l-.71.71.44.44c.25-.22.49-.46.71-.71l-.44-.44Z"/>
      <path class="cls-1" d="m8.9,2.4c-3.59,0-6.5,2.91-6.5,6.5s2.91,6.5,6.5,6.5c1.62,0,3.09-.59,4.23-1.56l-.44-.44.71-.71.44.44c.97-1.14,1.56-2.62,1.56-4.23,0-3.59-2.91-6.5-6.5-6.5Zm0,12c-3.04,0-5.5-2.47-5.5-5.5s2.46-5.5,5.5-5.5,5.5,2.46,5.5,5.5-2.47,5.5-5.5,5.5Z"/>
      <path class="cls-1" d="m16.6,15.9l-.7.7-2.77-2.76c.25-.22.49-.46.71-.71l2.76,2.77Z"/>
      <path class="cls-1" d="m13.84,13.13c-.22.25-.46.49-.71.71l-.44-.44.71-.71.44.44Z"/>
    </symbol>
    <symbol id="icon-reset" viewbox="0 0 19 19">
      <path class="cls-1" d="m14.8,5L4.9,14.9l-.71-.71L14.1,4.29l.71.71Z"/>
      <path class="cls-1" d="m14.1,14.71L4.2,4.81l.71-.71,9.9,9.9-.71.71Z"/>
    </symbol>
    <symbol id="icon-logo" viewbox="0 0 90 32">
      <path d="M16.28,16.001C16.28,7.597,9.41,0.722,1,0.722v3.124c2.558,0,5.397,0.683,7.897,2.955c2.501,2.211,4.258,5.449,4.258,9.2 c0,2.495-0.681,5.394-2.954,7.893C7.988,26.393,4.752,28.155,1,28.155v3.122C9.41,31.278,16.28,24.403,16.28,16.001z"/>
      <path d="M34.943,8.559V5.434c-5.617,0-10.562,4.946-10.562,10.567v10.562h3.129V16.001C27.511,12.255,30.689,8.559,34.943,8.559z"/>
      <path d="M43.327,16.001c0,5.619,4.943,10.562,10.566,10.562c5.621,0,10.562-4.943,10.562-10.562c0-5.621-4.941-10.567-10.562-10.567 C48.271,5.434,43.327,10.381,43.327,16.001z M61.332,16.001c0,3.748-3.183,7.44-7.439,7.44c-3.752,0-7.445-3.183-7.445-7.44 c0-3.752,3.185-7.438,7.445-7.438C57.64,8.563,61.332,11.741,61.332,16.001z"/>
      <path d="M78.336,5.434v3.129c3.754,0,7.441,3.178,7.441,7.438c0,3.748-3.178,7.44-7.441,7.44H71.47h-1.536v7.767h3.122v-4.645h5.279 c5.625,0,10.568-4.943,10.568-10.562C88.904,10.381,83.961,5.436,78.336,5.434z"/>
    </symbol>
  </defs>
</svg>